<svg width="35" height="71" viewBox="0 0 35 71" fill="none" xmlns="http://www.w3.org/2000/svg">
<rect x="3" y="26" width="26" height="44" rx="12" stroke="white" stroke-width="2"/>
<path fill-rule="evenodd" clip-rule="evenodd" d="M16 60C17.6569 60 19 58.6569 19 57C19 55.3431 17.6569 54 16 54C14.3431 54 13 55.3431 13 57C13 58.6569 14.3431 60 16 60Z" fill="white"/>
<path d="M6.57617 11.48C6.57617 12.3052 6.27783 12.9526 5.68115 13.4224C5.08447 13.8921 4.26139 14.127 3.21191 14.127C2.16243 14.127 1.30339 13.964 0.634766 13.6382V12.2036C1.05794 12.4025 1.50651 12.5591 1.98047 12.6733C2.45866 12.7876 2.90299 12.8447 3.31348 12.8447C3.91439 12.8447 4.35661 12.7305 4.64014 12.502C4.9279 12.2734 5.07178 11.9666 5.07178 11.5815C5.07178 11.2345 4.94059 10.9404 4.67822 10.6992C4.41585 10.458 3.87419 10.1724 3.05322 9.84229C2.20687 9.49951 1.61019 9.10807 1.26318 8.66797C0.916178 8.22786 0.742676 7.69889 0.742676 7.08105C0.742676 6.30664 1.01774 5.69727 1.56787 5.25293C2.118 4.80859 2.85645 4.58643 3.7832 4.58643C4.67188 4.58643 5.55632 4.78109 6.43652 5.17041L5.9541 6.4082C5.12891 6.0612 4.39258 5.8877 3.74512 5.8877C3.25423 5.8877 2.88184 5.99561 2.62793 6.21143C2.37402 6.42301 2.24707 6.70443 2.24707 7.05566C2.24707 7.29688 2.29785 7.50423 2.39941 7.67773C2.50098 7.84701 2.66813 8.00781 2.90088 8.16016C3.13363 8.3125 3.55257 8.51351 4.15771 8.76318C4.83903 9.04671 5.33838 9.3112 5.65576 9.55664C5.97314 9.80208 6.20589 10.0793 6.354 10.3882C6.50212 10.6971 6.57617 11.061 6.57617 11.48ZM11.0449 14.127C9.98275 14.127 9.17448 13.818 8.62012 13.2002C8.06999 12.5781 7.79492 11.6873 7.79492 10.5278C7.79492 9.34717 8.08268 8.43945 8.6582 7.80469C9.23796 7.16992 10.0737 6.85254 11.1655 6.85254C11.9061 6.85254 12.5726 6.99007 13.165 7.26514L12.7144 8.46484C12.0838 8.2194 11.5633 8.09668 11.1528 8.09668C9.93831 8.09668 9.33105 8.90283 9.33105 10.5151C9.33105 11.3022 9.48128 11.8947 9.78174 12.2925C10.0864 12.686 10.5308 12.8828 11.1147 12.8828C11.7791 12.8828 12.4076 12.7178 13 12.3877V13.689C12.7334 13.8455 12.4478 13.9577 12.1431 14.0254C11.8426 14.0931 11.4766 14.127 11.0449 14.127ZM18.2114 6.85254C18.5119 6.85254 18.7594 6.8737 18.9541 6.91602L18.8081 8.30615C18.5965 8.25537 18.3765 8.22998 18.1479 8.22998C17.5513 8.22998 17.0667 8.42464 16.6943 8.81396C16.3262 9.20329 16.1421 9.70898 16.1421 10.3311V14H14.6504V6.97949H15.8184L16.0151 8.21729H16.0913C16.3241 7.79834 16.6266 7.46615 16.999 7.2207C17.3757 6.97526 17.7798 6.85254 18.2114 6.85254ZM26.4888 10.4771C26.4888 11.6239 26.1947 12.5189 25.6064 13.1621C25.0182 13.8053 24.1994 14.127 23.1499 14.127C22.494 14.127 21.9142 13.9788 21.4106 13.6826C20.9071 13.3864 20.5199 12.9611 20.249 12.4067C19.9782 11.8524 19.8428 11.2091 19.8428 10.4771C19.8428 9.3387 20.1348 8.45003 20.7188 7.81104C21.3027 7.17204 22.1258 6.85254 23.188 6.85254C24.2036 6.85254 25.0076 7.1805 25.6001 7.83643C26.1925 8.48812 26.4888 9.36833 26.4888 10.4771ZM21.3789 10.4771C21.3789 12.0978 21.9777 12.9082 23.1753 12.9082C24.3602 12.9082 24.9526 12.0978 24.9526 10.4771C24.9526 8.87321 24.356 8.07129 23.1626 8.07129C22.5363 8.07129 22.0814 8.27865 21.7979 8.69336C21.5186 9.10807 21.3789 9.70264 21.3789 10.4771ZM29.7007 14H28.209V4.12305H29.7007V14ZM33.3315 14H31.8398V4.12305H33.3315V14Z" fill="white"/>
</svg>
